<svg width="30" height="30" viewBox="0 0 30 30" fill="none" xmlns="http://www.w3.org/2000/svg">
<path d="M0 1C0 0.447716 0.447715 0 1 0H29C29.5523 0 30 0.447715 30 1V29C30 29.5523 29.5523 30 29 30H1C0.447716 30 0 29.5523 0 29V1Z" fill="url(#paint0_linear_1_77)"/>
<g clip-path="url(#clip0_1_77)">
<path d="M18.6668 7.61143C17.9161 7.62311 17.1818 7.83267 16.538 8.21895C15.8942 8.60523 15.3637 9.15455 15.0002 9.81143C14.6366 9.15455 14.1061 8.60523 13.4623 8.21895C12.8185 7.83267 12.0842 7.62311 11.3335 7.61143C10.1368 7.66343 9.00931 8.18694 8.19736 9.06759C7.38542 9.94824 6.95501 11.1145 7.00018 12.3114C7.00018 16.8281 14.3042 22.0448 14.6148 22.2661L15.0002 22.5388L15.3855 22.2661C15.6962 22.0461 23.0002 16.8281 23.0002 12.3114C23.0453 11.1145 22.6149 9.94824 21.803 9.06759C20.991 8.18694 19.8635 7.66343 18.6668 7.61143V7.61143Z" fill="white"/>
</g>
<defs>
<linearGradient id="paint0_linear_1_77" x1="0" y1="0" x2="30" y2="30" gradientUnits="userSpaceOnUse">
<stop stop-color="#4000F4"/>
<stop offset="0.224829" stop-color="#603AED"/>
<stop offset="0.469313" stop-color="#7C6EE6"/>
<stop offset="0.657091" stop-color="#979FE1"/>
<stop offset="0.77684" stop-color="#A2B3DE"/>
<stop offset="0.889332" stop-color="#ADC8DC"/>
<stop offset="1" stop-color="#C0ECD7"/>
</linearGradient>
<clipPath id="clip0_1_77">
<path d="M7 8C7 7.44772 7.44772 7 8 7H22C22.5523 7 23 7.44772 23 8V22C23 22.5523 22.5523 23 22 23H8C7.44772 23 7 22.5523 7 22V8Z" fill="white"/>
</clipPath>
</defs>
</svg>
